<svg id="Camada_1" data-name="Camada 1" xmlns="http://www.w3.org/2000/svg" viewBox="0 0 127.56 31.46"><defs><style>.cls-1{fill:#fff;}</style></defs><title>logo_white</title><g id="_10" data-name="10"><g id="logo"><polygon class="cls-1" points="14.67 0 0 31.46 4.59 31.46 19.26 0 14.67 0"/><polygon class="cls-1" points="28.43 0 23.84 0 9.18 31.46 13.76 31.46 26.14 4.92 38.52 31.46 43.1 31.46 28.43 0"/><polygon class="cls-1" points="23.84 19.69 27.39 27.3 20.29 27.3 18.35 31.46 33.92 31.46 26.13 14.77 23.84 19.69"/></g></g><path class="cls-1" d="M62.93,65a.63.63,0,0,1,0-.47l7.91-21.85a.68.68,0,0,1,.25-.39.74.74,0,0,1,.43-.11h3.13a.76.76,0,0,1,.78.53L83.27,64.6a.51.51,0,0,1,0,.42.33.33,0,0,1-.34.2H80a.5.5,0,0,1-.52-.37l-2-5.52a.3.3,0,0,0-.11-.21.43.43,0,0,0-.26-.06H68.54a.36.36,0,0,0-.37.24l-2,5.62a.51.51,0,0,1-.17.23.67.67,0,0,1-.36.07H63.24A.33.33,0,0,1,62.93,65Zm13.24-8.9c.27,0,.35-.14.25-.43l-3.35-9.3c-.08-.17-.16-.25-.23-.25s-.14.09-.2.28l-3.44,9.3c-.11.27,0,.4.21.4Z" transform="translate(-11.14 -39.65)"/><path class="cls-1" d="M94.06,51.21a5.34,5.34,0,0,0-2.51-.56,4.77,4.77,0,0,0-2.53.62A2,2,0,0,0,88,53a1.66,1.66,0,0,0,.44,1.05,3.68,3.68,0,0,0,1.86.93l3.81,1.09a6.09,6.09,0,0,1,3.25,1.77,4,4,0,0,1,1,2.69,4.08,4.08,0,0,1-.89,2.65A5.78,5.78,0,0,1,95,64.92a9.7,9.7,0,0,1-3.58.61,9.43,9.43,0,0,1-4.41-1,5.93,5.93,0,0,1-2.65-2.44.84.84,0,0,1-.07-.32.27.27,0,0,1,.13-.23L86,60.76a.63.63,0,0,1,.35-.11.23.23,0,0,1,.2.14,6.64,6.64,0,0,0,1.15,1.27,4.93,4.93,0,0,0,1.58.89,7,7,0,0,0,2.23.32,6.37,6.37,0,0,0,2-.29,3.32,3.32,0,0,0,1.38-.82,1.78,1.78,0,0,0,.5-1.24,1.66,1.66,0,0,0-.61-1.29,5.34,5.34,0,0,0-2.12-1l-3.16-.8a7.06,7.06,0,0,1-3.38-1.71,3.66,3.66,0,0,1-1-2.6,4.42,4.42,0,0,1,.8-2.65,5.35,5.35,0,0,1,2.28-1.78,9.27,9.27,0,0,1,7.27.17,6.09,6.09,0,0,1,2.48,2.09.68.68,0,0,1,.12.26q0,.14-.15.27l-1.61.83a.42.42,0,0,1-.27,0,.54.54,0,0,1-.26-.15A4.42,4.42,0,0,0,94.06,51.21Z" transform="translate(-11.14 -39.65)"/><path class="cls-1" d="M106.49,51.15c-.19,0-.28.1-.28.31v9.08a2.49,2.49,0,0,0,.5,1.82,2.09,2.09,0,0,0,1.51.48h2a.34.34,0,0,1,.28.11.39.39,0,0,1,.09.26v1.33a.53.53,0,0,1-.46.53c-.27,0-.6.07-1,.09l-1.16,0h-1a4.27,4.27,0,0,1-3-.94,3.85,3.85,0,0,1-1-2.93V51.52c0-.25-.1-.37-.31-.37h-2.32c-.27,0-.41-.12-.41-.37V49.14c0-.23.13-.35.38-.35h2.48c.16,0,.25-.09.25-.27l.37-4.87c0-.29.14-.44.37-.44h2.14c.27,0,.4.17.4.5v4.81c0,.18.09.27.28.27h3.72c.25,0,.37.12.37.35v1.64c0,.25-.14.37-.43.37Z" transform="translate(-11.14 -39.65)"/><path class="cls-1" d="M113.9,65.1a.48.48,0,0,1-.13-.37V49.26c0-.31.14-.47.41-.47h2.38c.25,0,.37.14.37.41v1.95c0,.12,0,.2.11.22s.15,0,.24-.13a9.31,9.31,0,0,1,1.56-1.53,6.71,6.71,0,0,1,1.6-.92,4.56,4.56,0,0,1,1.61-.31c.72,0,1.08.15,1.08.44v2.42c0,.24-.11.35-.34.31a3.83,3.83,0,0,0-.79-.13c-.28,0-.56,0-.85,0a3.64,3.64,0,0,0-1.36.28,5.15,5.15,0,0,0-2.33,1.83,2.11,2.11,0,0,0-.4,1.21V64.7c0,.35-.2.52-.59.52h-2.2A.5.5,0,0,1,113.9,65.1Z" transform="translate(-11.14 -39.65)"/><path class="cls-1" d="M132.68,65a7.44,7.44,0,0,1-2.94.55A5.35,5.35,0,0,1,126,64.29,4.18,4.18,0,0,1,124.62,61a4.47,4.47,0,0,1,1-2.91,6.56,6.56,0,0,1,2.85-1.93,15,15,0,0,1,4.57-.83l2-.16a1,1,0,0,0,.34-.12.38.38,0,0,0,.16-.34V54a3.16,3.16,0,0,0-.94-2.4,3.52,3.52,0,0,0-2.54-.88,4.6,4.6,0,0,0-2.23.55A5.46,5.46,0,0,0,128,53a.71.71,0,0,1-.18.22.5.5,0,0,1-.35,0l-2.1-.62a.31.31,0,0,1-.17-.17.66.66,0,0,1,.07-.42,6.19,6.19,0,0,1,2.65-2.59,10.63,10.63,0,0,1,8-.28A4.46,4.46,0,0,1,138,51a5.51,5.51,0,0,1,.7,2.8v11a.64.64,0,0,1-.11.42.5.5,0,0,1-.36.1h-2.11a.4.4,0,0,1-.34-.17.92.92,0,0,1-.15-.45l0-1.17c-.06-.33-.24-.35-.53-.07A7.84,7.84,0,0,1,132.68,65ZM135.1,57l-1.67.12a11.8,11.8,0,0,0-2.27.33,6.87,6.87,0,0,0-1.75.7,3.49,3.49,0,0,0-1.14,1,2.4,2.4,0,0,0-.42,1.41,2.31,2.31,0,0,0,.85,1.9,3.52,3.52,0,0,0,2.31.7,4.85,4.85,0,0,0,1.75-.32,5.6,5.6,0,0,0,1.44-.83,4.84,4.84,0,0,0,1-1.08,2,2,0,0,0,.36-1.09V57.5C135.54,57.15,135.39,57,135.1,57Z" transform="translate(-11.14 -39.65)"/></svg>