<svg width="181" height="61" viewBox="0 0 181 61" fill="none" xmlns="http://www.w3.org/2000/svg">
<path d="M38.107 24.9234C39.1442 21.3065 41.4527 19.8598 44.698 19.8926C45.7351 19.8926 46.8058 20.0242 47.7425 20.2872C47.5418 21.7011 47.2741 24.7919 47.2407 26.5346C46.3039 26.2387 45.1998 26.1071 44.0623 26.1071C40.449 26.14 39.1107 27.4881 39.1107 32.5847C39.1107 35.7742 39.1442 39.7528 39.3115 42.186H31.9845C32.0514 39.0951 32.0514 35.807 32.0514 31.0393C32.0514 26.3702 32.0514 23.2136 31.9845 20.1228H37.9398C37.8729 21.5696 37.8394 23.0821 37.8394 24.8577L38.107 24.9234Z" fill="white"/>
<path d="M60.7571 42.679C53.3632 42.679 49.0139 38.1085 49.0139 30.8089C49.0139 23.5094 53.6643 19.6294 60.7571 19.6294C67.8164 19.6294 72.6342 23.4765 72.6342 30.8089C72.6342 38.0757 68.1845 42.679 60.7571 42.679ZM60.7571 25.3836C57.5787 25.3836 55.5379 26.8961 55.5379 31.0062C55.5379 35.0835 57.5453 36.9248 60.7571 36.9248C64.0359 36.9248 65.9763 34.9848 65.9763 31.0062C65.9763 27.0276 63.9689 25.3836 60.7571 25.3836Z" fill="white"/>
<path d="M82.9723 14.6972C82.8719 18.8402 82.8719 22.8188 82.8719 28.7374C82.8719 33.9654 82.8719 37.5166 82.9723 41.5281H77.4185C77.5188 37.5824 77.5188 33.1434 77.5188 28.4414C77.5188 23.2462 77.5188 19.0703 77.4185 14.6972H82.9723ZM83.6414 14.0396H76.7159C76.8163 18.6429 76.8163 23.0489 76.8163 28.4414C76.8163 33.4722 76.8163 38.0756 76.7159 42.1857H83.6414C83.541 37.8783 83.541 34.2285 83.541 28.7374C83.541 22.5557 83.541 18.4127 83.6414 14.0396Z" fill="white"/>
<path d="M110.842 20.8134C110.741 23.6083 110.741 26.3374 110.741 31.0065C110.741 35.3797 110.741 38.6678 110.842 41.5613H105.254C105.254 41.0023 105.288 40.542 105.288 40.0488C105.288 39.6213 105.321 39.1939 105.321 38.7664L105.355 38.2075L104.786 38.1088L104.585 38.0759L104.083 37.9773L103.849 38.4376C102.712 40.8051 100.504 41.923 96.8567 41.923C92.039 41.923 89.6636 39.5885 89.6636 34.8207C89.6636 32.9465 89.6636 31.5984 89.697 30.4146C89.697 29.4282 89.697 28.6062 89.697 27.6526C89.697 25.1866 89.697 23.0164 89.6301 20.8463H95.2843C95.1839 23.7069 95.1505 27.7184 95.1505 33.2753C95.1505 36.5634 96.4887 37.9773 99.6336 37.9773C103.18 37.9773 105.288 35.7414 105.288 31.9601C105.288 25.3838 105.254 22.8191 105.221 20.8463H110.842V20.8134ZM111.511 20.1558H104.585C104.619 22.3588 104.652 24.7591 104.652 31.9272C104.652 35.7414 102.444 37.2868 99.6671 37.2868C96.9237 37.2868 95.853 36.2017 95.853 33.2424C95.853 27.8828 95.8865 23.3452 95.9869 20.1558H88.961C89.0614 22.5232 89.0614 24.8906 89.0614 27.6198C89.0614 29.7241 89.0279 31.434 89.0279 34.7878C89.0279 40.1474 91.9386 42.5478 96.8902 42.5478C100.671 42.5478 103.18 41.3969 104.485 38.7007L104.686 38.7335C104.652 39.9501 104.619 40.8708 104.585 42.2189H111.544C111.444 39.161 111.444 35.7414 111.444 31.0065C111.41 25.9099 111.41 23.2137 111.511 20.1558Z" fill="white"/>
<path d="M131.618 20.4843C136.536 20.4843 138.711 22.8188 138.711 28.0469C138.711 29.7896 138.677 31.0391 138.677 32.157C138.677 33.0448 138.644 33.834 138.644 34.7218C138.644 37.1878 138.644 39.3909 138.711 41.561H133.09C133.157 38.5688 133.191 34.4258 133.191 29.5594C133.191 26.1727 131.852 24.7259 128.707 24.7259C125.128 24.7259 123.087 26.8632 123.087 30.5788C123.087 37.0563 123.12 39.6868 123.154 41.561H117.566C117.667 38.7332 117.667 36.0041 117.667 31.3679C117.667 27.0605 117.633 23.7724 117.566 20.8131H123.187C123.154 21.7666 123.12 22.5887 123.053 23.608L123.02 24.1012L123.522 24.2656L123.756 24.3314L124.325 24.5286L124.592 24.0025C125.763 21.6022 128.005 20.4843 131.618 20.4843ZM131.618 19.8267C127.904 19.8267 125.328 20.9775 123.957 23.7066L123.722 23.6409C123.789 22.4243 123.823 21.5036 123.856 20.1555H116.864C116.931 23.1805 116.964 26.6001 116.964 31.3679C116.964 36.4316 116.964 39.1278 116.864 42.2186H123.823C123.789 40.0485 123.756 37.6153 123.756 30.5788C123.756 26.8303 125.897 25.3836 128.707 25.3836C131.518 25.3836 132.521 26.5344 132.521 29.5594C132.521 34.7546 132.488 39.1278 132.421 42.2186H139.413C139.313 39.8183 139.313 37.4838 139.313 34.7218C139.313 32.7489 139.38 31.2035 139.38 28.0798C139.38 22.1283 136.603 19.8267 131.618 19.8267Z" fill="white"/>
<path d="M154.971 20.3202C158.35 20.3202 161.16 21.2409 163.101 22.9836C165.142 24.8249 166.179 27.4554 166.179 30.8093C166.179 37.8129 161.997 42.0217 154.971 42.0217C148.045 42.0217 143.897 37.8458 143.897 30.8093C143.897 24.1344 147.945 20.3202 154.971 20.3202ZM154.971 37.6156C157.179 37.6156 160.859 36.7607 160.859 31.0394C160.859 25.8442 157.647 24.7592 154.971 24.7592C151.123 24.7592 149.082 26.9293 149.082 31.0394C149.082 36.7607 152.763 37.6156 154.971 37.6156ZM154.971 19.6626C147.911 19.6626 143.228 23.5097 143.228 30.8421C143.228 38.1089 147.543 42.7122 154.971 42.7122C162.398 42.7122 166.848 38.1417 166.848 30.8421C166.848 23.5097 162.03 19.6626 154.971 19.6626ZM154.971 36.958C151.759 36.958 149.752 35.1167 149.752 31.0394C149.752 26.9293 151.792 25.4168 154.971 25.4168C158.183 25.4168 160.19 27.0608 160.19 31.0394C160.19 35.018 158.25 36.958 154.971 36.958Z" fill="white"/>
<path d="M181 42.1858H170.628V31.9927H181V42.1858ZM171.298 41.5282H180.331V32.6503H171.298V41.5282Z" fill="white"/>
<path d="M16.2599 14.9275H10.3715V10.6201H0V20.8132H3.44603C3.47948 23.082 3.47948 25.6139 3.47948 28.5731C3.47948 34.3931 3.44603 38.273 3.27874 42.2188H10.9403C10.8065 40.3117 10.7061 37.9771 10.6726 35.2809C12.7469 35.3466 14.0852 35.3466 16.1261 35.3466C23.7542 35.3466 27.8693 31.8941 27.8693 25.0878C27.8693 17.7553 23.6203 14.9275 16.2599 14.9275ZM0.669131 20.1556V11.2777H9.7024V20.1556H0.669131ZM14.8547 29.1979C13.1484 29.1979 11.6094 29.165 10.6392 29.165C10.6392 26.5674 10.6392 23.8383 10.6392 21.0105C12.0778 20.9776 14.1521 20.9448 15.0889 20.9448C19.0702 20.9448 20.7765 22.0298 20.7765 24.9562C20.7765 28.0799 19.271 29.1979 14.8547 29.1979Z" fill="white"/>
<path d="M10.3715 10.6201H0V20.8132H10.3715V10.6201Z" fill="#81BCB7"/>
<path d="M181 31.9927H170.628V42.1858H181V31.9927Z" fill="#EB7129"/>
<path d="M111.076 50.7349H100.704V60.928H111.076V50.7349Z" fill="#759AED"/>
<path d="M71.2625 0.0981445H60.8909V10.2913H71.2625V0.0981445Z" fill="#EFB8E8"/>
</svg>
