<svg xmlns="http://www.w3.org/2000/svg" width="121" height="122" viewBox="0 0 121 122">
  <defs>
    <style>
      .cls-1 {
        fill: #100f0f;
        fill-rule: evenodd;
      }
    </style>
  </defs>
  <path id="Forma_1" data-name="Forma 1" class="cls-1" d="M41.927,46.981a1.363,1.363,0,1,0,0,1.927A1.364,1.364,0,0,0,41.927,46.981ZM60.384,84.239a4.771,4.771,0,0,0-3.844-7.6H33.371a4.767,4.767,0,0,0-3.841,7.594,6.82,6.82,0,0,0-3.655,6.035v1.363A1.363,1.363,0,0,0,27.238,93H62.672a1.363,1.363,0,0,0,1.363-1.363V90.272A6.82,6.82,0,0,0,60.384,84.239ZM31.925,79.968a2.031,2.031,0,0,1,1.446-.6H56.54a2.044,2.044,0,1,1,0,4.089H33.371A2.045,2.045,0,0,1,31.925,79.968ZM28.6,90.272a4.093,4.093,0,0,1,4.089-4.089H57.221a4.093,4.093,0,0,1,4.089,4.089H28.6Zm65.787-9.794a8.585,8.585,0,0,0-1.642-1.885l-6.368-5.554a1.378,1.378,0,0,0-.173-0.211,1.358,1.358,0,0,0-.369-0.261l-3.851-3.359L64.159,53.658a4.081,4.081,0,0,0-1.2-6.509L64.611,45.5a5.455,5.455,0,0,0,5.263-1.409,5.451,5.451,0,0,0,0-7.71L58.31,24.817a5.449,5.449,0,0,0-9.118,5.263L32.738,46.533a5.484,5.484,0,0,0-1.411-.185,5.451,5.451,0,0,0-3.854,9.306L39.036,67.218a5.45,5.45,0,0,0,9.119-5.263L49.8,60.31A4.09,4.09,0,0,0,56.312,61.5L75.3,83.318a1.371,1.371,0,0,0,.185.231c0.024,0.024.05,0.047,0.076,0.069l5.658,6.5c0.141,0.166.291,0.329,0.447,0.485A8.106,8.106,0,0,0,87.425,93a8.374,8.374,0,0,0,1.147-.079,8.247,8.247,0,0,0,6.085-4.212A8.065,8.065,0,0,0,94.388,80.479ZM52.528,26.744a2.725,2.725,0,0,1,3.855,0L67.947,38.308a2.726,2.726,0,0,1-3.854,3.855L52.528,30.6h0A2.728,2.728,0,0,1,52.528,26.744ZM44.819,65.291a2.729,2.729,0,0,1-3.855,0L29.4,53.727a2.725,2.725,0,0,1,3.853-3.856L44.819,61.437A2.728,2.728,0,0,1,44.819,65.291ZM50.557,55.7L46.746,59.51,35.181,47.945,50.6,32.526,62.165,44.091l-3.818,3.818-0.038.036L50.6,55.65Zm4.866,2.843-0.008.008-0.96.96A1.363,1.363,0,0,1,52.511,57.6l7.741-7.741a1.363,1.363,0,0,1,2.312.979,1.35,1.35,0,0,1-.4.963l-0.954.954-0.02.02Zm2.822,1.032,3.983-3.983L79.094,70.3,72.94,76.456ZM74.734,78.517L81.153,72.1l2.059,1.8-6.684,6.685Zm17.545,8.86a5.543,5.543,0,0,1-4.08,2.844,5.415,5.415,0,0,1-4.608-1.544c-0.1-.1-0.205-0.214-0.3-0.325l-0.013-.015-4.958-5.7,6.95-6.95,5.69,4.963,0.013,0.011A5.867,5.867,0,0,1,92.1,81.958,5.381,5.381,0,0,1,92.278,87.377ZM51.564,37.344a1.363,1.363,0,0,0-1.927,0l-5.783,5.782a1.363,1.363,0,1,0,1.927,1.927l5.783-5.782A1.363,1.363,0,0,0,51.564,37.344Z"/>
</svg>
